 <svg version="1.1" id="Layer_1"
        xmlns="http://www.w3.org/2000/svg" xmlns:xlink="http://www.w3.org/1999/xlink" x="0px" y="0px"
        viewBox="0 0 1274 720" style="enable-background:new 0 0 1274 720;" xml:space="preserve"
        class="w-full h-full">
        <g>
            <g>
                <g>
                    <path fill="#0284C7" class="text-sky-950" d="M528.85,583.41h-8.17c-0.62,0-1.12,0.5-1.12,1.12v4.64c0,0.62,0.5,1.12,1.12,1.12h8.17
c0.62,0,1.12-0.5,1.12-1.12v-4.64C529.97,583.91,529.47,583.41,528.85,583.41z"></path>
                    <path fill="currentColor" class="text-sky-950" d="M86.77,79.97H78.6c-0.62,0-1.12,0.5-1.12,1.12v4.64c0,0.62,0.5,1.12,1.12,1.12h8.17
c0.62,0,1.12-0.5,1.12-1.12v-4.64C87.89,80.47,87.39,79.97,86.77,79.97z"></path>
                    <g>
                        <path fill="#082F49" class="text-sky-950" d="M196.29,491.85h-8.17c-0.62,0-1.12,0.5-1.12,1.12v4.64c0,0.62,0.5,1.12,1.12,1.12h8.17
    c0.62,0,1.12-0.5,1.12-1.12v-4.64C197.41,492.35,196.9,491.85,196.29,491.85z"></path>
                    </g>
                    <g>
                        <path fill="#0284C7" class="text-sky-950" d="M600.44,83.41h-8.17c-0.62,0-1.12,0.5-1.12,1.12v4.64c0,0.62,0.5,1.12,1.12,1.12h8.17
    c0.62,0,1.12-0.5,1.12-1.12v-4.64C601.56,83.91,601.06,83.41,600.44,83.41z"></path>
                    </g>
                    <g>
                        <path fill="#0284C7" class="text-sky-600" d="M218.35,467.76h-5.61c-0.42,0-0.77,0.34-0.77,0.77v3.18c0,0.42,0.34,0.77,0.77,0.77h5.61
    c0.42,0,0.77-0.34,0.77-0.77v-3.18C219.12,468.1,218.77,467.76,218.35,467.76z"></path>
                    </g>
                    <g>
                        <path fill="#082F49" class="text-sky-600" d="M263.75,174.54h-5.54c-0.42,0-0.76,0.34-0.76,0.76v3.15c0,0.42,0.34,0.76,0.76,0.76h5.54
    c0.42,0,0.76-0.34,0.76-0.76v-3.15C264.51,174.88,264.17,174.54,263.75,174.54z"></path>
                    </g>
                </g>
            </g>
            <g>
                <g>
                    <path fill="#0284C7" class="text-sky-950" d="M733.51,99.08h8.17c0.62,0,1.12-0.5,1.12-1.12v-4.64c0-0.62-0.5-1.12-1.12-1.12h-8.17
c-0.62,0-1.12,0.5-1.12,1.12v4.64C732.4,98.58,732.9,99.08,733.51,99.08z"></path>
                    <path fill="#0284C7" class="text-sky-950" d="M1175.59,602.52h8.17c0.62,0,1.12-0.5,1.12-1.12v-4.64c0-0.62-0.5-1.12-1.12-1.12h-8.17
c-0.62,0-1.12,0.5-1.12,1.12v4.64C1174.48,602.02,1174.98,602.52,1175.59,602.52z"></path>
                    <g>
                        <path fill="#082F49" class="text-sky-950" d="M1066.08,190.64h8.17c0.62,0,1.12-0.5,1.12-1.12v-4.64c0-0.62-0.5-1.12-1.12-1.12l-8.17,0
    c-0.62,0-1.12,0.5-1.12,1.12v4.64C1064.96,190.14,1065.46,190.64,1066.08,190.64z"></path>
                    </g>
                    <g>
                        <path fill="#082F49" class="text-sky-600" d="M1044.01,214.73l5.61,0c0.42,0,0.77-0.34,0.77-0.77v-3.18c0-0.42-0.34-0.77-0.77-0.77h-5.61
    c-0.42,0-0.77,0.34-0.77,0.77v3.18C1043.25,214.39,1043.59,214.73,1044.01,214.73z"></path>
                    </g>
                    <g>
                        <path fill="#0284C7" class="text-sky-600" d="M998.61,507.96h5.54c0.42,0,0.76-0.34,0.76-0.76v-3.15c0-0.42-0.34-0.76-0.76-0.76h-5.54
    c-0.42,0-0.76,0.34-0.76,0.76v3.15C997.85,507.62,998.19,507.96,998.61,507.96z"></path>
                    </g>
                </g>
            </g>
        </g>
    </svg>